<?xml version="1.0" standalone="no"?>
<!DOCTYPE svg PUBLIC "-//W3C//DTD SVG 1.1//EN" "http://www.w3.org/Graphics/SVG/1.1/DTD/svg11.dtd">
<svg xmlns="http://www.w3.org/2000/svg" viewBox="0 0 740.000 871.000">
	<g id="Plane.039">
		<path style="fill:none;stroke:black;" d="M320.659,555.929L321.512,556.747L322.555,557.368L323.682,557.727L324.780,557.813L336.820,556.916L337.901,556.671L338.986,556.156L339.964,555.399L340.734,554.477L341.241,553.491L389.413,411.467L389.912,410.446L390.666,409.427L391.616,408.518L392.668,407.811L393.710,407.358L453.137,390.120L453.969,389.847L454.392,389.630L454.366,389.493L453.893,389.447L453.019,389.497L381.788,396.127L380.695,396.385L379.575,396.903L378.543,397.652L377.702,398.556L377.118,399.515L332.773,502.044L332.188,502.999L331.347,503.892L330.313,504.625L329.192,505.123L328.097,505.358L326.062,505.502L324.951,505.419L323.789,505.074L322.690,504.477L321.767,503.691L321.092,502.805L317.196,495.774L316.530,494.883L315.603,494.110L314.505,493.532L313.343,493.204L312.232,493.159L296.371,494.673L295.407,494.921L294.672,495.444L294.238,496.191L294.147,497.088L294.410,498.049L320.059,555.005ZM287.404,434.986L286.529,434.212L285.471,433.651L284.339,433.361L283.243,433.348L280.331,433.767L279.256,434.081L278.173,434.658L277.195,435.464L276.420,436.415L275.905,437.410L256.081,494.101L255.571,495.115L254.807,496.121L253.846,497.012L252.784,497.698L251.734,498.130L200.754,511.722L199.916,511.973L199.487,512.167L199.509,512.285L199.979,512.316L200.851,512.257L258.672,506.545L259.790,506.296L260.983,505.811L262.130,505.120L263.116,504.291L263.858,503.418L277.553,482.702L278.295,481.829L279.280,481.000L280.427,480.309L281.621,479.824L282.739,479.576L282.739,479.576L283.841,479.634L284.984,479.963L286.053,480.553L286.940,481.344L287.578,482.245L290.267,487.616L290.895,488.526L291.787,489.316L292.858,489.908L294.002,490.243L295.106,490.290L310.304,488.817L311.263,488.570L311.985,488.052L312.399,487.313L312.464,486.427L312.174,485.479L288.030,435.885Z"/>
	</g>
</svg>