<svg width="512" height="512" viewBox="0 0 512 512" fill="none" xmlns="http://www.w3.org/2000/svg">
<path d="M498.045 280.053L456.074 145.746C466.905 140.655 475.387 131.372 479.422 120.001H497C505.284 120.001 512 113.285 512 105.001C512 96.717 505.284 90.001 497 90.001H479.42C473.228 72.542 456.555 60.001 437 60.001C417.445 60.001 400.772 72.542 394.58 90.001H362.616C357.674 79.626 347.775 72.055 336 70.363V35C336 15.701 320.299 0 301 0H191C171.701 0 156 15.701 156 35V90H117.42C111.228 72.541 94.555 60 75 60C55.445 60 38.772 72.541 32.58 90H15C6.716 90 0 96.716 0 105C0 113.284 6.716 120 15 120H32.58C36.614 131.373 45.095 140.654 55.926 145.745L13.955 280.053C6.161 280.591 0 287.068 0 295V315C0 356.355 33.645 390 75 390C116.355 390 150 356.355 150 315V295C150 287.068 143.839 280.591 136.045 280.053L94.073 145.745C104.904 140.654 113.385 131.373 117.419 120H156V162.574C156 191.803 166.606 219.401 186 240.974V270.872C180.178 272.933 176 278.472 176 285V497C176 505.284 182.716 512 191 512H321C329.284 512 336 505.284 336 497V285C336 278.472 331.822 272.933 326 270.872V240.262L362.713 194.371C364.841 191.711 366 188.407 366 185V120H394.579C398.614 131.371 407.096 140.655 417.927 145.745L375.956 280.052C368.161 280.591 362 287.068 362 295V315C362 356.355 395.645 390 437 390C478.355 390 512 356.355 512 315V295C512 287.068 505.839 280.591 498.045 280.053ZM75 90C83.271 90 90 96.729 90 105C90 113.271 83.271 120 75 120C66.729 120 60 113.271 60 105C60 96.729 66.729 90 75 90ZM120 315C120 339.813 99.813 360 75 360C50.187 360 30 339.813 30 315V310H120V315ZM45.403 280L75 185.289L104.597 280H45.403ZM437 90C445.271 90 452 96.729 452 105C452 113.271 445.271 120 437 120C428.729 120 422 113.271 422 105C422 96.729 428.729 90 437 90ZM186 35C186 32.243 188.243 30 191 30H301C303.757 30 306 32.243 306 35V70H266C249.247 70 234.876 80.357 228.929 95H201C192.729 95 186 88.271 186 80V35ZM306 482H206V300H306V482ZM336 179.738L299.287 225.629C297.159 228.289 296 231.593 296 235V270H216V235C216 231.022 214.419 227.207 211.606 224.394C195.094 207.881 186 185.926 186 162.574V122.42C190.695 124.085 195.742 125 201 125H228.929C234.167 137.897 245.939 147.47 260.12 149.569C251.067 162.624 246 178.35 246 195C246 203.284 252.716 210 261 210C269.284 210 276 203.284 276 195C276 176.045 286.532 159.004 303.485 150.528L307.708 148.417C313.931 145.306 317.197 138.325 315.599 131.554C314.001 124.783 307.957 120 301 120H266C260.486 120 256 115.514 256 110C256 104.486 260.486 100 266 100H331C333.757 100 336 102.243 336 105V179.738ZM437 185.289L466.597 280H407.404L437 185.289ZM482 315C482 339.813 461.813 360 437 360C412.187 360 392 339.813 392 315V310H482V315Z" fill="url(#paint0_linear)"/>
<defs>
<linearGradient id="paint0_linear" x1="46.8204" y1="465.18" x2="486.394" y2="25.6074" gradientUnits="userSpaceOnUse">
<stop stop-color="#FD3A84"/>
<stop offset="1" stop-color="#FFA68D"/>
</linearGradient>
</defs>
</svg>
