<svg height="464pt" viewBox="-1 0 464 464" width="464pt" xmlns="http://www.w3.org/2000/svg"><path d="m422.503906 212.039062c-4.320312-16.925781-17.617187-30.222656-34.542968-34.542968-1.601563-.40625-1.601563-2.574219 0-2.992188 16.925781-4.320312 30.222656-17.617187 34.542968-34.542968.40625-1.601563 2.574219-1.601563 2.992188 0 4.320312 16.925781 17.617187 30.222656 34.542968 34.542968 1.601563.40625 1.601563 2.574219 0 2.992188-16.925781 4.320312-30.222656 17.617187-34.542968 34.542968-.40625 1.601563-2.585938 1.601563-2.992188 0zm0 0" fill="#ffca55"/><path d="m296 416c8.800781 0 16-7.199219 16-16s-7.199219-16-16-16-16 7.199219-16 16 7.199219 16 16 16zm0 32c-24 0-44.878906-13.199219-55.839844-32.71875-2.640625.398438-5.359375.71875-8.160156.71875-26.480469 0-48-21.519531-48-48s21.519531-48 48-48h40v-320h48v24h72v32h-72v40h72v32h-72v192h40c26.480469 0 48 21.519531 48 48s-21.519531 48-48 48c-2.800781 0-5.519531-.320312-8.160156-.71875-10.960938 19.519531-31.839844 32.71875-55.839844 32.71875zm0 0" fill="#ee964b"/><path d="m138.71875 136c8.480469 0 16.640625 3.359375 22.640625 9.359375l46.640625 46.640625h64v40h-88l-48-48v96l32 184h-48l-32-160v160h-48v-176h-40v-104c0-26.480469 21.519531-48 48-48h16l24 48 24-48zm0 0" fill="#5dbcd9"/><path d="m136 8v48h-96v-48l24 16 24-24 24 24zm0 0" fill="#ffca55"/><path d="m123.921875 119.761719c-8.722656 10-21.601563 16.238281-35.921875 16.238281-26.480469 0-48-21.519531-48-48v-32h96v32c0 12.238281-4.558594 23.359375-12 31.761719zm0 0" fill="#5dbcd9"/><path d="m88 136h24l-24 48-24-48zm0 0" fill="#ffca55"/><g fill="#45639c"><path d="m122.992188 127.695312c-19.945313-2.527343-34.992188-19.597656-34.992188-39.695312h16c0 12.0625 9.03125 22.304688 21.007812 23.824219zm0 0"/><path d="m288 344h16v16h-16zm0 0"/><path d="m320 344h16v16h-16zm0 0"/><path d="m256 344h16v16h-16zm0 0"/></g><path d="m32 184h8v104h-8zm0 0" fill="#3ea0cf"/><path d="m320 48h72v8h-72zm0 0" fill="#e38a40"/><path d="m320 120h72v8h-72zm0 0" fill="#e38a40"/></svg>