<svg width="512" height="512" viewBox="0 0 512 512" fill="none" xmlns="http://www.w3.org/2000/svg">
<g clip-path="url(#clip0)">
<path d="M137.731 295.92C126.708 295.92 117.77 304.857 117.77 315.881V491.539C117.77 502.562 126.707 511.5 137.731 511.5H137.732C148.755 511.5 157.693 502.563 157.693 491.539L157.691 315.88C157.691 304.857 148.755 295.92 137.731 295.92Z" fill="url(#paint0_linear)"/>
<path d="M215.579 252.007C204.556 252.007 195.618 260.944 195.618 271.968V491.539C195.618 502.562 204.555 511.5 215.579 511.5C226.603 511.5 235.54 502.563 235.54 491.539V271.967C235.539 260.944 226.603 252.007 215.579 252.007Z" fill="url(#paint1_linear)"/>
<path d="M452.116 0.498047H392.233C381.209 0.498047 372.272 9.43505 372.272 20.459C372.272 31.483 381.209 40.42 392.233 40.42H444.843L298.272 186.959C294.34 190.892 289.194 193.129 284.105 193.129C283.998 193.129 283.889 193.128 283.782 193.126C278.881 193.034 273.872 190.787 270.044 186.958L246.576 163.49C235.087 152.001 219.835 145.341 204.728 145.217C204.581 145.216 204.435 145.216 204.289 145.216C188.653 145.216 173.04 152.051 161.371 164.015L40.855 283.956C33.077 291.769 33.105 304.407 40.918 312.185C44.812 316.062 49.906 318 55 318C60.123 318 65.246 316.039 69.146 312.121L189.74 192.103C189.799 192.045 189.856 191.986 189.914 191.927C194.082 187.634 199.513 185.088 204.401 185.137C209.052 185.175 214.266 187.635 218.349 191.718L241.817 215.186C253.043 226.413 267.683 232.754 283.04 233.04C299.009 233.34 314.863 226.831 326.504 215.188L472.077 69.644V119.266C472.077 130.29 481.014 139.227 492.038 139.227C503.062 139.227 511.999 130.29 511.999 119.266V60.381C511.999 27.362 485.136 0.498047 452.116 0.498047Z" fill="url(#paint2_linear)"/>
<path d="M58.9519 385.746C47.9019 385.708 38.9229 394.656 38.9229 405.707V491.539C38.9229 502.562 47.8598 511.5 58.8839 511.5H58.8848C69.9088 511.5 78.8459 502.563 78.8459 491.539V405.707C78.8449 394.709 69.9509 385.783 58.9519 385.746Z" fill="url(#paint3_linear)"/>
<path d="M451.118 171.165C440.094 171.165 431.157 180.102 431.157 191.126V491.54C431.157 502.563 440.094 511.501 451.118 511.501H451.119C462.142 511.501 471.08 502.564 471.08 491.54V191.126C471.079 180.101 462.143 171.165 451.118 171.165Z" fill="url(#paint4_linear)"/>
<path d="M293.426 276.958C282.402 276.958 273.465 285.895 273.465 296.919V491.539C273.465 502.562 282.402 511.5 293.426 511.5H293.427C304.45 511.5 313.388 502.563 313.388 491.539V296.919C313.387 285.895 304.451 276.958 293.426 276.958Z" fill="url(#paint5_linear)"/>
<path d="M372.2 239.032C361.204 239.072 352.312 247.998 352.312 258.993V491.54C352.312 502.563 361.249 511.501 372.273 511.501H372.274C383.297 511.501 392.235 502.564 392.235 491.54V258.993C392.233 247.94 383.252 238.991 372.2 239.032Z" fill="url(#paint6_linear)"/>
</g>
<defs>
<linearGradient id="paint0_linear" x1="121.421" y1="491.786" x2="187.699" y2="479.512" gradientUnits="userSpaceOnUse">
<stop stop-color="#FD3A84"/>
<stop offset="1" stop-color="#FFA68D"/>
</linearGradient>
<linearGradient id="paint1_linear" x1="199.269" y1="487.771" x2="266.233" y2="477.468" gradientUnits="userSpaceOnUse">
<stop stop-color="#FD3A84"/>
<stop offset="1" stop-color="#FFA68D"/>
</linearGradient>
<linearGradient id="paint2_linear" x1="78.6559" y1="288.966" x2="330.133" y2="-88.8081" gradientUnits="userSpaceOnUse">
<stop stop-color="#FD3A84"/>
<stop offset="1" stop-color="#FFA68D"/>
</linearGradient>
<linearGradient id="paint3_linear" x1="42.5737" y1="500" x2="104.848" y2="480.23" gradientUnits="userSpaceOnUse">
<stop stop-color="#FD3A84"/>
<stop offset="1" stop-color="#FFA68D"/>
</linearGradient>
<linearGradient id="paint4_linear" x1="434.808" y1="480.379" x2="502.428" y2="472.447" gradientUnits="userSpaceOnUse">
<stop stop-color="#FD3A84"/>
<stop offset="1" stop-color="#FFA68D"/>
</linearGradient>
<linearGradient id="paint5_linear" x1="277.116" y1="490.052" x2="343.736" y2="478.712" gradientUnits="userSpaceOnUse">
<stop stop-color="#FD3A84"/>
<stop offset="1" stop-color="#FFA68D"/>
</linearGradient>
<linearGradient id="paint6_linear" x1="355.963" y1="486.585" x2="423.073" y2="476.752" gradientUnits="userSpaceOnUse">
<stop stop-color="#FD3A84"/>
<stop offset="1" stop-color="#FFA68D"/>
</linearGradient>
<clipPath id="clip0">
<rect width="511.999" height="511.999" fill="white"/>
</clipPath>
</defs>
</svg>
