<svg width="512" height="512" viewBox="0 0 512 512" fill="none" xmlns="http://www.w3.org/2000/svg">
<g clip-path="url(#clip0)">
<path d="M290.875 127.041C290.875 135.295 297.566 141.987 305.821 141.987C314.075 141.987 320.767 135.295 320.767 127.041C320.767 112.456 313.27 98.4684 300.196 88.6628C291.906 82.4462 281.836 78.1647 270.947 76.1151V74.7301C270.947 66.4759 264.255 59.7841 256.001 59.7841C247.746 59.7841 241.055 66.4759 241.055 74.7301V76.1161C230.165 78.1657 220.094 82.4472 211.805 88.6638C198.732 98.4684 191.234 112.457 191.234 127.042C191.234 141.628 198.731 155.615 211.805 165.421C220.095 171.637 230.165 175.919 241.055 177.968V221.864C229.486 218.125 221.126 210.325 221.126 201.772C221.126 193.518 214.435 186.826 206.18 186.826C197.926 186.826 191.234 193.518 191.234 201.772C191.234 216.358 198.731 230.345 211.805 240.151C220.095 246.367 230.165 250.649 241.055 252.698V254.082C241.055 262.337 247.746 269.028 256.001 269.028C264.255 269.028 270.947 262.337 270.947 254.082V252.696C281.836 250.647 291.907 246.365 300.196 240.149C313.269 230.344 320.767 216.356 320.767 201.77C320.767 187.185 313.27 173.197 300.196 163.392C291.906 157.175 281.836 152.894 270.947 150.844V106.949C282.515 110.689 290.875 118.488 290.875 127.041V127.041ZM241.055 147.133C229.486 143.394 221.126 135.594 221.126 127.041C221.126 118.488 229.486 110.689 241.055 106.95V147.133ZM290.875 201.771C290.875 210.324 282.515 218.123 270.947 221.863V181.681C282.515 185.419 290.875 193.218 290.875 201.771ZM454.943 318.944C451.647 315.098 446.634 313.183 441.604 313.859C436.976 314.48 327.675 329.607 275.393 374.419C273.839 375.75 272.368 377.095 270.946 378.446V328.127C354.621 320.55 420.407 250.023 420.407 164.407C420.407 73.7536 346.654 0.000976562 256.001 0.000976562C165.347 0.000976562 91.5943 73.7536 91.5943 164.407C91.5943 250.022 157.379 320.549 241.054 328.127V378.445C239.631 377.094 238.16 375.75 236.608 374.419C184.325 329.607 75.0241 314.481 70.3958 313.86C65.369 313.184 60.3541 315.1 57.057 318.945C53.7599 322.791 52.635 328.046 54.0708 332.905C55.393 337.383 87.0576 443.086 139.34 487.897C161.13 506.575 182.999 512.001 201.057 512.001C208.021 512.001 214.421 511.194 220.027 510.028C239.303 506.02 252.662 497.243 256 494.883C259.338 497.243 272.696 506.02 291.972 510.028C297.579 511.194 303.976 512.001 310.942 512.001C328.999 512.001 350.871 506.574 372.659 487.898C424.941 443.086 456.606 337.383 457.928 332.905C459.364 328.044 458.239 322.79 454.943 318.944V318.944ZM235.961 472.249C231.977 474.607 224.103 478.648 213.941 480.761C194.189 484.869 175.632 479.635 158.793 465.2C126.839 437.812 102.439 380.085 90.6148 347.707C124.421 354.441 185.199 369.724 217.153 397.113C250.981 426.108 240.309 461.531 235.961 472.249V472.249ZM121.486 164.406C121.486 90.2351 181.829 29.892 256.001 29.892C330.172 29.892 390.515 90.2351 390.515 164.406C390.515 238.577 330.172 298.92 256.001 298.92C181.829 298.92 121.486 238.577 121.486 164.406ZM353.206 465.2C353.206 465.201 353.206 465.201 353.206 465.2C319.377 494.196 286.004 478.23 276.08 472.295C274.357 467.998 271.569 459.597 271.035 449.233C270.97 447.975 270.942 446.728 270.947 445.49C271.034 426.908 279.061 410.643 294.846 397.113C326.8 369.724 387.579 354.44 421.384 347.707C409.56 380.086 385.161 437.812 353.206 465.2Z" fill="url(#paint0_linear)"/>
</g>
<defs>
<linearGradient id="paint0_linear" x1="90.5014" y1="465.181" x2="518.286" y2="126.728" gradientUnits="userSpaceOnUse">
<stop stop-color="#FD3A84"/>
<stop offset="1" stop-color="#FFA68D"/>
</linearGradient>
<clipPath id="clip0">
<rect width="512" height="512" fill="white"/>
</clipPath>
</defs>
</svg>
